<?xml version="1.0" encoding="UTF-8" standalone="no"?>
<!DOCTYPE svg PUBLIC "-//W3C//DTD SVG 1.1//EN"
 "http://www.w3.org/Graphics/SVG/1.1/DTD/svg11.dtd">
<!-- Generated by graphviz version 3.0.0 (20220226.1711)
 -->
<!-- Title: python Pages: 1 -->
<svg width="1241pt" height="681pt"
 viewBox="0.00 0.00 1240.79 681.00" xmlns="http://www.w3.org/2000/svg" xmlns:xlink="http://www.w3.org/1999/xlink">
<g id="graph0" class="graph" transform="scale(1 1) rotate(0) translate(4 677)">
<title>python</title>
<polygon fill="white" stroke="transparent" points="-4,4 -4,-677 1236.79,-677 1236.79,4 -4,4"/>
<g id="clust2" class="cluster">
<title>cluster_screen</title>
<polygon fill="none" stroke="black" points="723.79,-299 723.79,-665 1136.79,-665 1136.79,-299 723.79,-299"/>
<text text-anchor="middle" x="930.29" y="-649.8" font-family="Times New Roman,serif" font-size="14.00">screen.py</text>
</g>
<g id="clust1" class="cluster">
<title>cluster_pythoninternals</title>
<polygon fill="none" stroke="black" points="765.79,-8 765.79,-155 943.79,-155 943.79,-8 765.79,-8"/>
<text text-anchor="middle" x="854.79" y="-139.8" font-family="Times New Roman,serif" font-size="14.00">internals</text>
</g>
<g id="clust3" class="cluster">
<title>cluster_modules</title>
<polygon fill="none" stroke="black" points="49.79,-80 49.79,-518 715.79,-518 715.79,-80 49.79,-80"/>
<text text-anchor="middle" x="382.79" y="-502.8" font-family="Times New Roman,serif" font-size="14.00">modules</text>
</g>
<!-- print -->
<g id="node1" class="node">
<title>print</title>
<ellipse fill="none" stroke="black" cx="828.79" cy="-106" rx="27.1" ry="18"/>
<text text-anchor="middle" x="828.79" y="-102.3" font-family="Times New Roman,serif" font-size="14.00">print</text>
</g>
<!-- internal_framework -->
<g id="node2" class="node">
<title>internal_framework</title>
<ellipse fill="none" stroke="black" cx="854.79" cy="-34" rx="80.69" ry="18"/>
<text text-anchor="middle" x="854.79" y="-30.3" font-family="Times New Roman,serif" font-size="14.00">internal_framework</text>
</g>
<!-- print&#45;&gt;internal_framework -->
<g id="edge1" class="edge">
<title>print&#45;&gt;internal_framework</title>
<path fill="none" stroke="black" d="M834.96,-88.41C837.95,-80.34 841.63,-70.43 845,-61.35"/>
<polygon fill="black" stroke="black" points="848.29,-62.55 848.5,-51.96 841.73,-60.11 848.29,-62.55"/>
</g>
<!-- range -->
<g id="node3" class="node">
<title>range</title>
<ellipse fill="none" stroke="black" cx="904.79" cy="-106" rx="30.59" ry="18"/>
<text text-anchor="middle" x="904.79" y="-102.3" font-family="Times New Roman,serif" font-size="14.00">range</text>
</g>
<!-- range&#45;&gt;internal_framework -->
<g id="edge2" class="edge">
<title>range&#45;&gt;internal_framework</title>
<path fill="none" stroke="black" d="M893.45,-89.12C887.45,-80.72 879.93,-70.2 873.13,-60.67"/>
<polygon fill="black" stroke="black" points="875.81,-58.4 867.15,-52.29 870.11,-62.46 875.81,-58.4"/>
</g>
<!-- pushp -->
<g id="node4" class="node">
<title>pushp</title>
<ellipse fill="none" stroke="black" cx="870.79" cy="-544" rx="33.29" ry="18"/>
<text text-anchor="middle" x="870.79" y="-540.3" font-family="Times New Roman,serif" font-size="14.00">pushp</text>
</g>
<!-- scnmem -->
<g id="node5" class="node">
<title>scnmem</title>
<ellipse fill="none" stroke="black" cx="893.79" cy="-325" rx="40.89" ry="18"/>
<text text-anchor="middle" x="893.79" y="-321.3" font-family="Times New Roman,serif" font-size="14.00">scnmem</text>
</g>
<!-- pushp&#45;&gt;scnmem -->
<g id="edge3" class="edge">
<title>pushp&#45;&gt;scnmem</title>
<path fill="none" stroke="green" d="M865.97,-525.96C856.2,-491.45 834.99,-416.41 834.79,-415 832.61,-399.15 828.28,-393.61 834.79,-379 840.6,-365.97 851.37,-354.81 862.14,-346.14"/>
<polygon fill="green" stroke="green" points="864.4,-348.81 870.28,-340 860.19,-343.22 864.4,-348.81"/>
</g>
<!-- updscn -->
<g id="node6" class="node">
<title>updscn</title>
<ellipse fill="none" stroke="black" cx="962.79" cy="-469" rx="37.89" ry="18"/>
<text text-anchor="middle" x="962.79" y="-465.3" font-family="Times New Roman,serif" font-size="14.00">updscn</text>
</g>
<!-- pushp&#45;&gt;updscn -->
<g id="edge4" class="edge">
<title>pushp&#45;&gt;updscn</title>
<path fill="none" stroke="red" d="M888.97,-528.58C902.4,-517.92 920.9,-503.24 936.02,-491.24"/>
<polygon fill="red" stroke="red" points="938.37,-493.85 944.02,-484.89 934.01,-488.37 938.37,-493.85"/>
</g>
<!-- popp -->
<g id="node7" class="node">
<title>popp</title>
<ellipse fill="none" stroke="black" cx="804.79" cy="-469" rx="30.59" ry="18"/>
<text text-anchor="middle" x="804.79" y="-465.3" font-family="Times New Roman,serif" font-size="14.00">popp</text>
</g>
<!-- pushp&#45;&gt;popp -->
<g id="edge5" class="edge">
<title>pushp&#45;&gt;popp</title>
<path fill="none" stroke="red" d="M856.8,-527.52C847.7,-517.45 835.67,-504.15 825.48,-492.88"/>
<polygon fill="red" stroke="red" points="828.07,-490.53 818.77,-485.46 822.88,-495.22 828.07,-490.53"/>
</g>
<!-- updscn&#45;&gt;print -->
<g id="edge65" class="edge">
<title>updscn&#45;&gt;print</title>
<path fill="none" stroke="red" d="M997.46,-461.81C1042.83,-453 1118.83,-435.62 1137.79,-415 1165.17,-385.23 1156.79,-366.45 1156.79,-326 1156.79,-326 1156.79,-326 1156.79,-252 1156.79,-115.25 975.77,-234.9 864.79,-155 856.26,-148.86 848.86,-140.1 843.03,-131.74"/>
<polygon fill="red" stroke="red" points="845.92,-129.77 837.53,-123.3 840.05,-133.59 845.92,-129.77"/>
</g>
<!-- updscn&#45;&gt;range -->
<g id="edge61" class="edge">
<title>updscn&#45;&gt;range</title>
<path fill="none" stroke="red" d="M997.28,-461.19C1053.12,-449.87 1158.39,-427.23 1170.79,-415 1199.96,-386.23 1194.79,-366.97 1194.79,-326 1194.79,-326 1194.79,-326 1194.79,-252 1194.79,-211.03 1200.56,-191.15 1170.79,-163 1138.65,-132.61 1010.94,-116.7 944.86,-110.36"/>
<polygon fill="red" stroke="red" points="945.09,-106.86 934.81,-109.42 944.44,-113.83 945.09,-106.86"/>
</g>
<!-- updscn&#45;&gt;scnmem -->
<g id="edge12" class="edge">
<title>updscn&#45;&gt;scnmem</title>
<path fill="none" stroke="green" d="M964.35,-450.9C965.3,-432.19 964.54,-401.81 952.79,-379 946.21,-366.22 935.19,-355.05 924.44,-346.3"/>
<polygon fill="green" stroke="green" points="926.42,-343.41 916.35,-340.1 922.16,-348.96 926.42,-343.41"/>
</g>
<!-- peekp -->
<g id="node9" class="node">
<title>peekp</title>
<ellipse fill="none" stroke="black" cx="1096.79" cy="-397" rx="32.49" ry="18"/>
<text text-anchor="middle" x="1096.79" y="-393.3" font-family="Times New Roman,serif" font-size="14.00">peekp</text>
</g>
<!-- updscn&#45;&gt;peekp -->
<g id="edge14" class="edge">
<title>updscn&#45;&gt;peekp</title>
<path fill="none" stroke="red" d="M987.37,-455.16C1009.12,-443.8 1040.99,-427.15 1064.73,-414.75"/>
<polygon fill="red" stroke="red" points="1066.47,-417.79 1073.72,-410.06 1063.23,-411.58 1066.47,-417.79"/>
</g>
<!-- pescnmem -->
<g id="node10" class="node">
<title>pescnmem</title>
<ellipse fill="none" stroke="black" cx="893.79" cy="-397" rx="50.09" ry="18"/>
<text text-anchor="middle" x="893.79" y="-393.3" font-family="Times New Roman,serif" font-size="14.00">pescnmem</text>
</g>
<!-- updscn&#45;&gt;pescnmem -->
<g id="edge13" class="edge">
<title>updscn&#45;&gt;pescnmem</title>
<path fill="none" stroke="red" d="M947.48,-452.46C938.62,-443.48 927.29,-431.98 917.32,-421.87"/>
<polygon fill="red" stroke="red" points="919.54,-419.13 910.03,-414.47 914.55,-424.05 919.54,-419.13"/>
</g>
<!-- cls -->
<g id="node11" class="node">
<title>cls</title>
<ellipse fill="none" stroke="black" cx="758.79" cy="-397" rx="27" ry="18"/>
<text text-anchor="middle" x="758.79" y="-393.3" font-family="Times New Roman,serif" font-size="14.00">cls</text>
</g>
<!-- updscn&#45;&gt;cls -->
<g id="edge11" class="edge">
<title>updscn&#45;&gt;cls</title>
<path fill="none" stroke="red" d="M933.13,-457.82C895.62,-444.95 831.22,-422.85 792.07,-409.42"/>
<polygon fill="red" stroke="red" points="793.05,-406.05 782.45,-406.12 790.78,-412.67 793.05,-406.05"/>
</g>
<!-- popp&#45;&gt;scnmem -->
<g id="edge9" class="edge">
<title>popp&#45;&gt;scnmem</title>
<path fill="none" stroke="red" d="M797.45,-451.26C794.77,-432.31 796.94,-401.2 810.79,-379 820.73,-363.09 837.36,-350.54 853.24,-341.65"/>
<polygon fill="red" stroke="red" points="855.2,-344.58 862.45,-336.85 851.96,-338.37 855.2,-344.58"/>
</g>
<!-- popp&#45;&gt;scnmem -->
<g id="edge10" class="edge">
<title>popp&#45;&gt;scnmem</title>
<path fill="none" stroke="green" d="M810.45,-451.26C812.77,-432.31 814.94,-401.2 828.79,-379 837.29,-365.39 850.7,-354.23 863.21,-345.73"/>
<polygon fill="green" stroke="green" points="865.16,-348.64 871.66,-340.27 861.36,-342.76 865.16,-348.64"/>
</g>
<!-- clrscn -->
<g id="node8" class="node">
<title>clrscn</title>
<ellipse fill="none" stroke="black" cx="1013.79" cy="-397" rx="32.49" ry="18"/>
<text text-anchor="middle" x="1013.79" y="-393.3" font-family="Times New Roman,serif" font-size="14.00">clrscn</text>
</g>
<!-- clrscn&#45;&gt;scnmem -->
<g id="edge6" class="edge">
<title>clrscn&#45;&gt;scnmem</title>
<path fill="none" stroke="green" d="M992.06,-383.32C973.71,-372.62 947.15,-357.12 926.27,-344.94"/>
<polygon fill="green" stroke="green" points="927.82,-341.8 917.42,-339.78 924.29,-347.84 927.82,-341.8"/>
</g>
<!-- peekp&#45;&gt;scnmem -->
<g id="edge7" class="edge">
<title>peekp&#45;&gt;scnmem</title>
<path fill="none" stroke="green" d="M1071.58,-385.48C1066.07,-383.27 1060.26,-381 1054.79,-379 1014.86,-364.36 968.69,-349.36 936.06,-339.07"/>
<polygon fill="green" stroke="green" points="936.98,-335.69 926.39,-336.03 934.88,-342.37 936.98,-335.69"/>
</g>
<!-- pescnmem&#45;&gt;scnmem -->
<g id="edge8" class="edge">
<title>pescnmem&#45;&gt;scnmem</title>
<path fill="none" stroke="green" d="M893.79,-378.7C893.79,-370.98 893.79,-361.71 893.79,-353.11"/>
<polygon fill="green" stroke="green" points="897.29,-353.1 893.79,-343.1 890.29,-353.1 897.29,-353.1"/>
</g>
<!-- cls&#45;&gt;print -->
<g id="edge62" class="edge">
<title>cls&#45;&gt;print</title>
<path fill="none" stroke="red" d="M762.96,-378.79C774.68,-330.4 807.99,-192.87 822.22,-134.13"/>
<polygon fill="red" stroke="red" points="825.69,-134.67 824.65,-124.12 818.89,-133.02 825.69,-134.67"/>
</g>
<!-- os -->
<g id="node17" class="node">
<title>os</title>
<ellipse fill="none" stroke="black" cx="680.79" cy="-325" rx="27" ry="18"/>
<text text-anchor="middle" x="680.79" y="-321.3" font-family="Times New Roman,serif" font-size="14.00">os</text>
</g>
<!-- cls&#45;&gt;os -->
<g id="edge63" class="edge">
<title>cls&#45;&gt;os</title>
<path fill="none" stroke="red" d="M739.94,-383.81C727.71,-374.17 712.05,-360.44 699.81,-348.78"/>
<polygon fill="red" stroke="red" points="701.93,-345.96 692.33,-341.48 697.04,-350.97 701.93,-345.96"/>
</g>
<!-- cls&#45;&gt;os -->
<g id="edge64" class="edge">
<title>cls&#45;&gt;os</title>
<path fill="none" stroke="green" d="M747.2,-380.46C736.71,-369.92 721.23,-355.93 707.76,-344.77"/>
<polygon fill="green" stroke="green" points="709.68,-341.81 699.7,-338.24 705.27,-347.25 709.68,-341.81"/>
</g>
<!-- pusht -->
<g id="node12" class="node">
<title>pusht</title>
<ellipse fill="none" stroke="black" cx="932.79" cy="-616" rx="30.59" ry="18"/>
<text text-anchor="middle" x="932.79" y="-612.3" font-family="Times New Roman,serif" font-size="14.00">pusht</text>
</g>
<!-- pusht&#45;&gt;pushp -->
<g id="edge15" class="edge">
<title>pusht&#45;&gt;pushp</title>
<path fill="none" stroke="red" d="M919.34,-599.81C911.17,-590.58 900.57,-578.61 891.36,-568.22"/>
<polygon fill="red" stroke="red" points="893.9,-565.81 884.65,-560.64 888.66,-570.45 893.9,-565.81"/>
</g>
<!-- refscn -->
<g id="node13" class="node">
<title>refscn</title>
<ellipse fill="none" stroke="black" cx="954.79" cy="-544" rx="33.29" ry="18"/>
<text text-anchor="middle" x="954.79" y="-540.3" font-family="Times New Roman,serif" font-size="14.00">refscn</text>
</g>
<!-- pusht&#45;&gt;refscn -->
<g id="edge16" class="edge">
<title>pusht&#45;&gt;refscn</title>
<path fill="none" stroke="red" d="M938.12,-598.05C940.63,-590.06 943.69,-580.33 946.5,-571.4"/>
<polygon fill="red" stroke="red" points="949.86,-572.38 949.52,-561.79 943.18,-570.28 949.86,-572.38"/>
</g>
<!-- kscnpipe -->
<g id="node14" class="node">
<title>kscnpipe</title>
<ellipse fill="none" stroke="black" cx="818.79" cy="-616" rx="43.59" ry="18"/>
<text text-anchor="middle" x="818.79" y="-612.3" font-family="Times New Roman,serif" font-size="14.00">kscnpipe</text>
</g>
<!-- kscnpipe&#45;&gt;pushp -->
<g id="edge18" class="edge">
<title>kscnpipe&#45;&gt;pushp</title>
<path fill="none" stroke="red" d="M831.12,-598.41C837.62,-589.66 845.72,-578.75 852.9,-569.08"/>
<polygon fill="red" stroke="red" points="855.76,-571.1 858.92,-560.99 850.14,-566.93 855.76,-571.1"/>
</g>
<!-- kscnpipe&#45;&gt;popp -->
<g id="edge19" class="edge">
<title>kscnpipe&#45;&gt;popp</title>
<path fill="none" stroke="red" d="M817.13,-597.8C814.73,-572.94 810.27,-526.74 807.42,-497.23"/>
<polygon fill="red" stroke="red" points="810.9,-496.8 806.45,-487.18 803.93,-497.47 810.9,-496.8"/>
</g>
<!-- getkey -->
<g id="node15" class="node">
<title>getkey</title>
<ellipse fill="none" stroke="black" cx="765.79" cy="-544" rx="34.39" ry="18"/>
<text text-anchor="middle" x="765.79" y="-540.3" font-family="Times New Roman,serif" font-size="14.00">getkey</text>
</g>
<!-- kscnpipe&#45;&gt;getkey -->
<g id="edge17" class="edge">
<title>kscnpipe&#45;&gt;getkey</title>
<path fill="none" stroke="red" d="M806.23,-598.41C799.6,-589.66 791.35,-578.75 784.03,-569.08"/>
<polygon fill="red" stroke="red" points="786.73,-566.85 777.9,-560.99 781.14,-571.07 786.73,-566.85"/>
</g>
<!-- keyboard -->
<g id="node21" class="node">
<title>keyboard</title>
<ellipse fill="none" stroke="black" cx="330.79" cy="-469" rx="44.69" ry="18"/>
<text text-anchor="middle" x="330.79" y="-465.3" font-family="Times New Roman,serif" font-size="14.00">keyboard</text>
</g>
<!-- getkey&#45;&gt;keyboard -->
<g id="edge66" class="edge">
<title>getkey&#45;&gt;keyboard</title>
<path fill="none" stroke="black" d="M733.45,-537.57C658.37,-524.97 471.8,-493.66 381.43,-478.5"/>
<polygon fill="black" stroke="black" points="381.87,-475.02 371.43,-476.82 380.71,-481.93 381.87,-475.02"/>
</g>
<!-- apeek -->
<g id="node16" class="node">
<title>apeek</title>
<ellipse fill="none" stroke="black" cx="1096.79" cy="-469" rx="31.7" ry="18"/>
<text text-anchor="middle" x="1096.79" y="-465.3" font-family="Times New Roman,serif" font-size="14.00">apeek</text>
</g>
<!-- apeek&#45;&gt;range -->
<g id="edge67" class="edge">
<title>apeek&#45;&gt;range</title>
<path fill="none" stroke="red" d="M1123.67,-459.12C1145.36,-450.76 1175.38,-436.3 1194.79,-415 1223.77,-383.22 1232.79,-369.01 1232.79,-326 1232.79,-326 1232.79,-326 1232.79,-252 1232.79,-209.16 1229.01,-190.05 1195.79,-163 1157.94,-132.18 1016.32,-116.28 945.56,-110.12"/>
<polygon fill="red" stroke="red" points="945.51,-106.6 935.25,-109.24 944.91,-113.57 945.51,-106.6"/>
</g>
<!-- apeek&#45;&gt;peekp -->
<g id="edge20" class="edge">
<title>apeek&#45;&gt;peekp</title>
<path fill="none" stroke="red" d="M1096.79,-450.7C1096.79,-442.98 1096.79,-433.71 1096.79,-425.11"/>
<polygon fill="red" stroke="red" points="1100.29,-425.1 1096.79,-415.1 1093.29,-425.1 1100.29,-425.1"/>
</g>
<!-- sys -->
<g id="node18" class="node">
<title>sys</title>
<ellipse fill="none" stroke="black" cx="680.79" cy="-181" rx="27" ry="18"/>
<text text-anchor="middle" x="680.79" y="-177.3" font-family="Times New Roman,serif" font-size="14.00">sys</text>
</g>
<!-- os&#45;&gt;sys -->
<g id="edge21" class="edge">
<title>os&#45;&gt;sys</title>
<path fill="none" stroke="black" d="M655.04,-319.43C629.18,-313.31 590.69,-299.72 572.79,-271 564.33,-257.42 564.33,-248.58 572.79,-235 573.94,-233.17 618.68,-211.58 650.21,-196.53"/>
<polygon fill="black" stroke="black" points="651.99,-199.56 659.51,-192.1 648.98,-193.24 651.99,-199.56"/>
</g>
<!-- abc -->
<g id="node19" class="node">
<title>abc</title>
<ellipse fill="none" stroke="black" cx="608.79" cy="-253" rx="27" ry="18"/>
<text text-anchor="middle" x="608.79" y="-249.3" font-family="Times New Roman,serif" font-size="14.00">abc</text>
</g>
<!-- os&#45;&gt;abc -->
<g id="edge22" class="edge">
<title>os&#45;&gt;abc</title>
<path fill="none" stroke="black" d="M666.22,-309.83C656.04,-299.94 642.27,-286.55 630.76,-275.36"/>
<polygon fill="black" stroke="black" points="633.2,-272.85 623.59,-268.38 628.32,-277.87 633.2,-272.85"/>
</g>
<!-- stat -->
<g id="node20" class="node">
<title>stat</title>
<ellipse fill="none" stroke="black" cx="680.79" cy="-253" rx="27" ry="18"/>
<text text-anchor="middle" x="680.79" y="-249.3" font-family="Times New Roman,serif" font-size="14.00">stat</text>
</g>
<!-- os&#45;&gt;stat -->
<g id="edge23" class="edge">
<title>os&#45;&gt;stat</title>
<path fill="none" stroke="black" d="M680.79,-306.7C680.79,-298.98 680.79,-289.71 680.79,-281.11"/>
<polygon fill="black" stroke="black" points="684.29,-281.1 680.79,-271.1 677.29,-281.1 684.29,-281.1"/>
</g>
<!-- sys&#45;&gt;internal_framework -->
<g id="edge24" class="edge">
<title>sys&#45;&gt;internal_framework</title>
<path fill="none" stroke="black" d="M683.32,-163.05C687.49,-140.95 697.86,-102.48 721.79,-80 738.13,-64.66 759.88,-54.54 781.05,-47.86"/>
<polygon fill="black" stroke="black" points="782.11,-51.2 790.72,-45.03 780.14,-44.48 782.11,-51.2"/>
</g>
<!-- abc&#45;&gt;internal_framework -->
<g id="edge25" class="edge">
<title>abc&#45;&gt;internal_framework</title>
<path fill="none" stroke="black" d="M629.99,-241.83C660.98,-226.94 715.17,-200.74 716.79,-199 755.62,-157.23 726.12,-121.91 764.79,-80 775,-68.94 788.52,-60.23 801.98,-53.54"/>
<polygon fill="black" stroke="black" points="803.65,-56.62 811.24,-49.23 800.7,-50.28 803.65,-56.62"/>
</g>
<!-- stat&#45;&gt;internal_framework -->
<g id="edge26" class="edge">
<title>stat&#45;&gt;internal_framework</title>
<path fill="none" stroke="black" d="M700.86,-240.91C716.17,-231.54 736.78,-216.8 749.79,-199 782.98,-153.6 758.99,-124.94 792.79,-80 799.53,-71.05 808.54,-63.12 817.6,-56.5"/>
<polygon fill="black" stroke="black" points="819.63,-59.36 825.88,-50.81 815.66,-53.59 819.63,-59.36"/>
</g>
<!-- __future__ -->
<g id="node22" class="node">
<title>__future__</title>
<ellipse fill="none" stroke="black" cx="234.79" cy="-397" rx="51.19" ry="18"/>
<text text-anchor="middle" x="234.79" y="-393.3" font-family="Times New Roman,serif" font-size="14.00">__future__</text>
</g>
<!-- keyboard&#45;&gt;__future__ -->
<g id="edge27" class="edge">
<title>keyboard&#45;&gt;__future__</title>
<path fill="none" stroke="black" d="M309.96,-452.81C296.69,-443.13 279.28,-430.43 264.55,-419.7"/>
<polygon fill="black" stroke="black" points="266.39,-416.71 256.25,-413.64 262.27,-422.36 266.39,-416.71"/>
</g>
<!-- re -->
<g id="node23" class="node">
<title>re</title>
<ellipse fill="none" stroke="black" cx="402.79" cy="-397" rx="27" ry="18"/>
<text text-anchor="middle" x="402.79" y="-393.3" font-family="Times New Roman,serif" font-size="14.00">re</text>
</g>
<!-- keyboard&#45;&gt;re -->
<g id="edge28" class="edge">
<title>keyboard&#45;&gt;re</title>
<path fill="none" stroke="black" d="M347.13,-452.12C357.01,-442.51 369.75,-430.13 380.54,-419.63"/>
<polygon fill="black" stroke="black" points="383.26,-421.87 387.99,-412.39 378.38,-416.85 383.26,-421.87"/>
</g>
<!-- itertools -->
<g id="node24" class="node">
<title>itertools</title>
<ellipse fill="none" stroke="black" cx="320.79" cy="-106" rx="40.09" ry="18"/>
<text text-anchor="middle" x="320.79" y="-102.3" font-family="Times New Roman,serif" font-size="14.00">itertools</text>
</g>
<!-- keyboard&#45;&gt;itertools -->
<g id="edge29" class="edge">
<title>keyboard&#45;&gt;itertools</title>
<path fill="none" stroke="black" d="M288.96,-462.28C254.99,-455.79 207.51,-442.31 174.79,-415 160.74,-403.27 166.28,-393.25 154.79,-379 139.57,-360.12 128.5,-362.28 113.79,-343 92.22,-314.7 89.15,-305.04 78.79,-271 64.77,-224.88 35.39,-197.75 68.79,-163 84.36,-146.81 250.12,-163.79 270.79,-155 282.9,-149.85 293.79,-140.34 302.29,-131.13"/>
<polygon fill="black" stroke="black" points="304.94,-133.42 308.85,-123.57 299.65,-128.83 304.94,-133.42"/>
</g>
<!-- collections -->
<g id="node25" class="node">
<title>collections</title>
<ellipse fill="none" stroke="black" cx="455.79" cy="-253" rx="50.09" ry="18"/>
<text text-anchor="middle" x="455.79" y="-249.3" font-family="Times New Roman,serif" font-size="14.00">collections</text>
</g>
<!-- keyboard&#45;&gt;collections -->
<g id="edge30" class="edge">
<title>keyboard&#45;&gt;collections</title>
<path fill="none" stroke="black" d="M365.16,-457.25C388.15,-448.71 417.9,-434.86 438.79,-415 478.32,-377.43 491.56,-352.02 478.79,-299 477.23,-292.51 474.56,-285.9 471.59,-279.81"/>
<polygon fill="black" stroke="black" points="474.56,-277.95 466.77,-270.78 468.39,-281.25 474.56,-277.95"/>
</g>
<!-- threading -->
<g id="node26" class="node">
<title>threading</title>
<ellipse fill="none" stroke="black" cx="101.79" cy="-397" rx="44.39" ry="18"/>
<text text-anchor="middle" x="101.79" y="-393.3" font-family="Times New Roman,serif" font-size="14.00">threading</text>
</g>
<!-- keyboard&#45;&gt;threading -->
<g id="edge31" class="edge">
<title>keyboard&#45;&gt;threading</title>
<path fill="none" stroke="black" d="M296.01,-457.37C255.85,-445.09 189.71,-424.87 145.95,-411.5"/>
<polygon fill="black" stroke="black" points="146.74,-408.08 136.15,-408.5 144.69,-414.77 146.74,-408.08"/>
</g>
<!-- time -->
<g id="node27" class="node">
<title>time</title>
<ellipse fill="none" stroke="black" cx="330.79" cy="-397" rx="27" ry="18"/>
<text text-anchor="middle" x="330.79" y="-393.3" font-family="Times New Roman,serif" font-size="14.00">time</text>
</g>
<!-- keyboard&#45;&gt;time -->
<g id="edge32" class="edge">
<title>keyboard&#45;&gt;time</title>
<path fill="none" stroke="black" d="M330.79,-450.7C330.79,-442.98 330.79,-433.71 330.79,-425.11"/>
<polygon fill="black" stroke="black" points="334.29,-425.1 330.79,-415.1 327.29,-425.1 334.29,-425.1"/>
</g>
<!-- enum -->
<g id="node28" class="node">
<title>enum</title>
<ellipse fill="none" stroke="black" cx="438.79" cy="-325" rx="30.59" ry="18"/>
<text text-anchor="middle" x="438.79" y="-321.3" font-family="Times New Roman,serif" font-size="14.00">enum</text>
</g>
<!-- re&#45;&gt;enum -->
<g id="edge33" class="edge">
<title>re&#45;&gt;enum</title>
<path fill="none" stroke="black" d="M411.14,-379.76C415.44,-371.4 420.79,-361.02 425.62,-351.61"/>
<polygon fill="black" stroke="black" points="428.78,-353.13 430.24,-342.63 422.55,-349.93 428.78,-353.13"/>
</g>
<!-- sre_compile -->
<g id="node29" class="node">
<title>sre_compile</title>
<ellipse fill="none" stroke="black" cx="177.79" cy="-325" rx="55.49" ry="18"/>
<text text-anchor="middle" x="177.79" y="-321.3" font-family="Times New Roman,serif" font-size="14.00">sre_compile</text>
</g>
<!-- re&#45;&gt;sre_compile -->
<g id="edge34" class="edge">
<title>re&#45;&gt;sre_compile</title>
<path fill="none" stroke="black" d="M381.73,-385.33C376.89,-383.08 371.71,-380.84 366.79,-379 322.1,-362.32 269.77,-348.03 231.52,-338.51"/>
<polygon fill="black" stroke="black" points="232.17,-335.06 221.62,-336.07 230.49,-341.86 232.17,-335.06"/>
</g>
<!-- sre_parse -->
<g id="node30" class="node">
<title>sre_parse</title>
<ellipse fill="none" stroke="black" cx="215.79" cy="-253" rx="46.29" ry="18"/>
<text text-anchor="middle" x="215.79" y="-249.3" font-family="Times New Roman,serif" font-size="14.00">sre_parse</text>
</g>
<!-- re&#45;&gt;sre_parse -->
<g id="edge35" class="edge">
<title>re&#45;&gt;sre_parse</title>
<path fill="none" stroke="black" d="M381.36,-385.83C349.38,-370.65 292.76,-343.75 291.79,-343 268.17,-324.87 246.69,-298.33 232.64,-278.95"/>
<polygon fill="black" stroke="black" points="235.36,-276.74 226.72,-270.61 229.65,-280.79 235.36,-276.74"/>
</g>
<!-- functools -->
<g id="node31" class="node">
<title>functools</title>
<ellipse fill="none" stroke="black" cx="345.79" cy="-325" rx="44.69" ry="18"/>
<text text-anchor="middle" x="345.79" y="-321.3" font-family="Times New Roman,serif" font-size="14.00">functools</text>
</g>
<!-- re&#45;&gt;functools -->
<g id="edge36" class="edge">
<title>re&#45;&gt;functools</title>
<path fill="none" stroke="black" d="M390.43,-380.81C383.19,-371.93 373.89,-360.5 365.65,-350.39"/>
<polygon fill="black" stroke="black" points="368.36,-348.17 359.33,-342.63 362.93,-352.59 368.36,-348.17"/>
</g>
<!-- itertools&#45;&gt;internal_framework -->
<g id="edge53" class="edge">
<title>itertools&#45;&gt;internal_framework</title>
<path fill="none" stroke="black" d="M343.97,-91.17C352.18,-86.89 361.65,-82.61 370.79,-80 442.84,-59.42 647.81,-45.74 766.64,-39.29"/>
<polygon fill="black" stroke="black" points="767.01,-42.77 776.8,-38.74 766.63,-35.78 767.01,-42.77"/>
</g>
<!-- collections&#45;&gt;sys -->
<g id="edge47" class="edge">
<title>collections&#45;&gt;sys</title>
<path fill="none" stroke="black" d="M496.98,-242.57C535.7,-233.21 594.99,-217.59 644.79,-199 646.64,-198.31 648.52,-197.56 650.41,-196.78"/>
<polygon fill="black" stroke="black" points="651.99,-199.91 659.73,-192.67 649.17,-193.5 651.99,-199.91"/>
</g>
<!-- collections&#45;&gt;itertools -->
<g id="edge48" class="edge">
<title>collections&#45;&gt;itertools</title>
<path fill="none" stroke="black" d="M419.51,-240.45C387.96,-229.66 345.65,-213.15 334.79,-199 320.77,-180.72 318.02,-154.26 318.35,-134.41"/>
<polygon fill="black" stroke="black" points="321.85,-134.29 318.79,-124.15 314.86,-133.99 321.85,-134.29"/>
</g>
<!-- reprlib -->
<g id="node34" class="node">
<title>reprlib</title>
<ellipse fill="none" stroke="black" cx="271.79" cy="-181" rx="34.39" ry="18"/>
<text text-anchor="middle" x="271.79" y="-177.3" font-family="Times New Roman,serif" font-size="14.00">reprlib</text>
</g>
<!-- collections&#45;&gt;reprlib -->
<g id="edge49" class="edge">
<title>collections&#45;&gt;reprlib</title>
<path fill="none" stroke="black" d="M422.47,-239.32C390.24,-227.06 341.5,-208.52 308.25,-195.87"/>
<polygon fill="black" stroke="black" points="309.47,-192.59 298.88,-192.31 306.99,-199.13 309.47,-192.59"/>
</g>
<!-- keyword -->
<g id="node37" class="node">
<title>keyword</title>
<ellipse fill="none" stroke="black" cx="593.79" cy="-181" rx="42.49" ry="18"/>
<text text-anchor="middle" x="593.79" y="-177.3" font-family="Times New Roman,serif" font-size="14.00">keyword</text>
</g>
<!-- collections&#45;&gt;keyword -->
<g id="edge50" class="edge">
<title>collections&#45;&gt;keyword</title>
<path fill="none" stroke="black" d="M483.72,-237.83C505.32,-226.88 535.35,-211.64 558.6,-199.85"/>
<polygon fill="black" stroke="black" points="560.44,-202.84 567.78,-195.2 557.27,-196.6 560.44,-202.84"/>
</g>
<!-- operator -->
<g id="node38" class="node">
<title>operator</title>
<ellipse fill="none" stroke="black" cx="385.79" cy="-181" rx="41.69" ry="18"/>
<text text-anchor="middle" x="385.79" y="-177.3" font-family="Times New Roman,serif" font-size="14.00">operator</text>
</g>
<!-- collections&#45;&gt;operator -->
<g id="edge51" class="edge">
<title>collections&#45;&gt;operator</title>
<path fill="none" stroke="black" d="M439.56,-235.76C430.55,-226.75 419.18,-215.39 409.22,-205.43"/>
<polygon fill="black" stroke="black" points="411.49,-202.74 401.94,-198.15 406.54,-207.69 411.49,-202.74"/>
</g>
<!-- _weakref -->
<g id="node39" class="node">
<title>_weakref</title>
<ellipse fill="none" stroke="black" cx="489.79" cy="-181" rx="44.39" ry="18"/>
<text text-anchor="middle" x="489.79" y="-177.3" font-family="Times New Roman,serif" font-size="14.00">_weakref</text>
</g>
<!-- collections&#45;&gt;_weakref -->
<g id="edge52" class="edge">
<title>collections&#45;&gt;_weakref</title>
<path fill="none" stroke="black" d="M464.02,-235.05C467.99,-226.89 472.84,-216.91 477.25,-207.82"/>
<polygon fill="black" stroke="black" points="480.42,-209.31 481.64,-198.79 474.12,-206.25 480.42,-209.31"/>
</g>
<!-- time&#45;&gt;internal_framework -->
<g id="edge54" class="edge">
<title>time&#45;&gt;internal_framework</title>
<path fill="none" stroke="black" d="M310.21,-385.22C305.26,-382.93 299.91,-380.69 294.79,-379 216.91,-353.3 185.56,-382.7 113.79,-343 66.2,-316.67 29.79,-308.39 29.79,-254 29.79,-254 29.79,-254 29.79,-180 29.79,-146.85 -96.97,-170.96 176.79,-80 283.12,-44.67 604.95,-37 763.93,-35.39"/>
<polygon fill="black" stroke="black" points="764.19,-38.88 774.16,-35.29 764.13,-31.88 764.19,-38.88"/>
</g>
<!-- enum&#45;&gt;sys -->
<g id="edge37" class="edge">
<title>enum&#45;&gt;sys</title>
<path fill="none" stroke="black" d="M458.01,-310.95C473.48,-300.36 495.7,-284.96 514.79,-271 536.03,-255.47 539.11,-248.33 561.79,-235 596.46,-214.62 608.16,-215.59 644.79,-199 646.59,-198.19 648.43,-197.35 650.28,-196.49"/>
<polygon fill="black" stroke="black" points="651.94,-199.58 659.53,-192.18 648.98,-193.23 651.94,-199.58"/>
</g>
<!-- sre_compile&#45;&gt;sre_parse -->
<g id="edge38" class="edge">
<title>sre_compile&#45;&gt;sre_parse</title>
<path fill="none" stroke="black" d="M186.99,-307.05C191.43,-298.89 196.84,-288.91 201.77,-279.82"/>
<polygon fill="black" stroke="black" points="204.98,-281.25 206.68,-270.79 198.83,-277.91 204.98,-281.25"/>
</g>
<!-- _sre -->
<g id="node32" class="node">
<title>_sre</title>
<ellipse fill="none" stroke="black" cx="124.79" cy="-253" rx="27" ry="18"/>
<text text-anchor="middle" x="124.79" y="-249.3" font-family="Times New Roman,serif" font-size="14.00">_sre</text>
</g>
<!-- sre_compile&#45;&gt;_sre -->
<g id="edge39" class="edge">
<title>sre_compile&#45;&gt;_sre</title>
<path fill="none" stroke="black" d="M165.23,-307.41C158.51,-298.53 150.11,-287.44 142.71,-277.67"/>
<polygon fill="black" stroke="black" points="145.36,-275.37 136.54,-269.51 139.78,-279.6 145.36,-275.37"/>
</g>
<!-- sre_constants -->
<g id="node33" class="node">
<title>sre_constants</title>
<ellipse fill="none" stroke="black" cx="138.79" cy="-181" rx="61.19" ry="18"/>
<text text-anchor="middle" x="138.79" y="-177.3" font-family="Times New Roman,serif" font-size="14.00">sre_constants</text>
</g>
<!-- sre_compile&#45;&gt;sre_constants -->
<g id="edge40" class="edge">
<title>sre_compile&#45;&gt;sre_constants</title>
<path fill="none" stroke="black" d="M140,-311.72C121.04,-303.43 99.81,-290.39 88.79,-271 80.89,-257.09 82.89,-249.87 88.79,-235 93.31,-223.63 101.54,-213.29 110.05,-204.83"/>
<polygon fill="black" stroke="black" points="112.57,-207.26 117.5,-197.89 107.8,-202.14 112.57,-207.26"/>
</g>
<!-- sre_parse&#45;&gt;sre_constants -->
<g id="edge41" class="edge">
<title>sre_parse&#45;&gt;sre_constants</title>
<path fill="none" stroke="black" d="M198.32,-236.12C188.23,-226.94 175.35,-215.23 164.16,-205.06"/>
<polygon fill="black" stroke="black" points="166.49,-202.44 156.73,-198.31 161.78,-207.62 166.49,-202.44"/>
</g>
<!-- functools&#45;&gt;abc -->
<g id="edge42" class="edge">
<title>functools&#45;&gt;abc</title>
<path fill="none" stroke="black" d="M371.99,-310.19C380.38,-306.16 389.83,-302.03 398.79,-299 430.68,-288.22 522.06,-270.26 573.14,-260.61"/>
<polygon fill="black" stroke="black" points="573.91,-264.03 583.09,-258.74 572.62,-257.15 573.91,-264.03"/>
</g>
<!-- functools&#45;&gt;collections -->
<g id="edge43" class="edge">
<title>functools&#45;&gt;collections</title>
<path fill="none" stroke="black" d="M368.59,-309.5C384.45,-299.4 405.83,-285.8 423.45,-274.58"/>
<polygon fill="black" stroke="black" points="425.71,-277.29 432.27,-268.97 421.96,-271.38 425.71,-277.29"/>
</g>
<!-- functools&#45;&gt;reprlib -->
<g id="edge44" class="edge">
<title>functools&#45;&gt;reprlib</title>
<path fill="none" stroke="black" d="M333.68,-307.27C326.56,-297.06 317.64,-283.59 310.79,-271 299.64,-250.5 289.15,-226.15 281.86,-208.11"/>
<polygon fill="black" stroke="black" points="285.11,-206.81 278.16,-198.81 278.6,-209.39 285.11,-206.81"/>
</g>
<!-- _thread -->
<g id="node35" class="node">
<title>_thread</title>
<ellipse fill="none" stroke="black" cx="223.79" cy="-106" rx="38.19" ry="18"/>
<text text-anchor="middle" x="223.79" y="-102.3" font-family="Times New Roman,serif" font-size="14.00">_thread</text>
</g>
<!-- functools&#45;&gt;_thread -->
<g id="edge45" class="edge">
<title>functools&#45;&gt;_thread</title>
<path fill="none" stroke="black" d="M326.15,-308.79C314.3,-298.92 299.48,-285.28 288.79,-271 278.07,-256.68 281.8,-249.1 270.79,-235 255.66,-215.62 239.67,-221.05 228.79,-199 218.93,-179 218.33,-153.5 219.82,-134.42"/>
<polygon fill="black" stroke="black" points="223.32,-134.59 220.86,-124.29 216.36,-133.88 223.32,-134.59"/>
</g>
<!-- types -->
<g id="node36" class="node">
<title>types</title>
<ellipse fill="none" stroke="black" cx="350.79" cy="-253" rx="30.59" ry="18"/>
<text text-anchor="middle" x="350.79" y="-249.3" font-family="Times New Roman,serif" font-size="14.00">types</text>
</g>
<!-- functools&#45;&gt;types -->
<g id="edge46" class="edge">
<title>functools&#45;&gt;types</title>
<path fill="none" stroke="black" d="M347.03,-306.7C347.58,-298.98 348.24,-289.71 348.86,-281.11"/>
<polygon fill="black" stroke="black" points="352.35,-281.33 349.57,-271.1 345.37,-280.83 352.35,-281.33"/>
</g>
<!-- reprlib&#45;&gt;itertools -->
<g id="edge58" class="edge">
<title>reprlib&#45;&gt;itertools</title>
<path fill="none" stroke="black" d="M282.67,-163.8C288.97,-154.41 297.03,-142.4 304.12,-131.85"/>
<polygon fill="black" stroke="black" points="307.11,-133.66 309.78,-123.41 301.3,-129.76 307.11,-133.66"/>
</g>
<!-- reprlib&#45;&gt;_thread -->
<g id="edge59" class="edge">
<title>reprlib&#45;&gt;_thread</title>
<path fill="none" stroke="black" d="M261.14,-163.8C254.97,-154.41 247.07,-142.4 240.13,-131.85"/>
<polygon fill="black" stroke="black" points="243,-129.84 234.58,-123.41 237.15,-133.69 243,-129.84"/>
</g>
<!-- builtins -->
<g id="node40" class="node">
<title>builtins</title>
<ellipse fill="none" stroke="black" cx="415.79" cy="-106" rx="36.29" ry="18"/>
<text text-anchor="middle" x="415.79" y="-102.3" font-family="Times New Roman,serif" font-size="14.00">builtins</text>
</g>
<!-- reprlib&#45;&gt;builtins -->
<g id="edge60" class="edge">
<title>reprlib&#45;&gt;builtins</title>
<path fill="none" stroke="black" d="M301.54,-171.72C312.02,-168.87 323.91,-165.71 334.79,-163 350.28,-159.14 355.91,-162.87 369.79,-155 380.4,-148.99 390.09,-139.76 397.81,-131"/>
<polygon fill="black" stroke="black" points="400.6,-133.11 404.32,-123.19 395.23,-128.63 400.6,-133.11"/>
</g>
<!-- _thread&#45;&gt;internal_framework -->
<g id="edge55" class="edge">
<title>_thread&#45;&gt;internal_framework</title>
<path fill="none" stroke="black" d="M245.96,-91.08C253.83,-86.79 262.94,-82.53 271.79,-80 361.89,-54.23 625.28,-42.22 765.13,-37.53"/>
<polygon fill="black" stroke="black" points="765.51,-41.02 775.39,-37.19 765.28,-34.03 765.51,-41.02"/>
</g>
<!-- operator&#45;&gt;builtins -->
<g id="edge57" class="edge">
<title>operator&#45;&gt;builtins</title>
<path fill="none" stroke="black" d="M392.75,-163.07C396.39,-154.22 400.92,-143.2 404.99,-133.28"/>
<polygon fill="black" stroke="black" points="408.31,-134.42 408.87,-123.84 401.83,-131.76 408.31,-134.42"/>
</g>
<!-- builtins&#45;&gt;internal_framework -->
<g id="edge56" class="edge">
<title>builtins&#45;&gt;internal_framework</title>
<path fill="none" stroke="black" d="M449.88,-99.57C520.7,-88.27 685.17,-62.05 781.29,-46.72"/>
<polygon fill="black" stroke="black" points="781.91,-50.17 791.23,-45.13 780.81,-43.25 781.91,-50.17"/>
</g>
</g>
</svg>
